<?xml version="1.0" encoding="UTF-8" standalone="no"?>
<svg width="780px" height="203px" viewBox="0 0 780 203" version="1.1" xmlns="http://www.w3.org/2000/svg" xmlns:xlink="http://www.w3.org/1999/xlink" xmlns:sketch="http://www.bohemiancoding.com/sketch/ns">
    <!-- Generator: Sketch 3.2 (9961) - http://www.bohemiancoding.com/sketch -->
    <title>Xamarin Platform</title>
    <desc>Created with Sketch.</desc>
    <defs></defs>
    <g id="Page-1" stroke="none" stroke-width="1" fill="none" fill-rule="evenodd" sketch:type="MSPage">
        <g id="Xamarin-Platform" sketch:type="MSArtboardGroup">
            <g id="Logo" sketch:type="MSLayerGroup" transform="translate(42.000000, 56.000000)">
                <path d="M159.830343,71.2247198 L149.514207,51.430391 L138.962593,71.2247198 L127.616332,71.2247198 L143.703693,45.6779432 L129.226018,20.2884425 L140.729307,20.2884425 L150.122673,39.5780614 L160.301425,20.2884425 L170.823261,20.2884425 L155.952956,45.5206546 L171.05874,71.2247198 L159.830343,71.2247198 Z M196.615791,71.2247198 L196.615791,65.6809924 L196.458639,65.6809924 C193.658046,70.0320997 189.692824,72.207647 184.56272,72.207647 C180.610509,72.207647 177.495862,71.1329934 175.218777,68.9836482 C172.941692,66.8080882 171.803087,63.8986034 171.803087,60.2552189 C171.803087,52.44418 176.187216,48.0013463 184.955351,46.9266421 L196.694242,45.3146364 C196.694242,39.8364586 194.155404,37.0973823 189.077726,37.0973318 C184.235652,37.0973823 179.786084,38.5914216 175.729147,41.5795129 L175.729147,33.5587811 C177.247245,32.641416 179.419604,31.8157521 182.246347,31.0817767 C185.099365,30.3479023 187.690504,29.9809461 190.020015,29.9808956 C200.384699,29.9809461 205.566978,35.2232542 205.567103,45.7078199 L205.567103,71.2247198 L196.615666,71.2247198 L196.615791,71.2247198 Z M188.017697,52.7849213 C185.321831,53.125688 183.424239,53.7940886 182.324923,54.790098 C181.251757,55.7599305 180.715236,57.2671024 180.715236,59.3116012 C180.715236,60.9891312 181.330333,62.3652546 182.560527,63.4399209 C183.790595,64.4883597 185.400282,65.0126044 187.389463,65.0126044 C190.085329,65.0126044 192.310113,64.0820815 194.063815,62.2210734 C195.817391,60.3600527 196.694242,58.0403494 196.694242,55.2619131 L196.694242,51.6447182 L188.017697,52.7849213 L188.017697,52.7849213 Z M263.452278,71.2247198 L263.452278,48.4993257 C263.452152,44.7511201 262.86333,41.9726964 261.685563,40.1640926 C260.53382,38.3293119 258.466064,37.4118963 255.482418,37.4118584 C253.100482,37.4118963 251.098289,38.5127773 249.475588,40.7145142 C247.852764,42.890112 247.041352,45.5243671 247.041352,48.6172921 L247.041352,71.2247198 L237.9723,71.2247198 L237.9723,47.7129966 C237.972176,40.8456006 235.341747,37.4118963 230.080892,37.4118584 C227.620629,37.4118963 225.592161,38.4472531 223.995487,40.5179413 C222.425087,42.5886801 221.639951,45.2884469 221.639951,48.6172921 L221.639951,71.2247198 L212.570775,71.2247198 L212.570775,30.9638481 L221.639951,30.9638481 L221.639951,37.1759761 L221.796978,37.1759761 C224.702297,32.3793063 228.942412,29.9809461 234.517448,29.9808956 C237.187038,29.9809461 239.542699,30.6886563 241.584306,32.1040513 C243.651937,33.4932821 245.104597,35.4198271 245.94216,37.8836736 C249.004506,32.6152013 253.506376,29.9809461 259.447766,29.9808956 C268.189624,29.9809461 272.560617,35.4329471 272.560742,46.336911 L272.560742,71.2247198 L263.452278,71.2247198 L263.452278,71.2247198 Z M302.711123,71.2247198 L302.711123,65.6809924 L302.553974,65.6809924 C299.75338,70.0320997 295.788029,72.207647 290.658049,72.207647 C286.705843,72.207647 283.591196,71.1329934 281.314111,68.9836482 C279.037026,66.8080882 277.898422,63.8986034 277.898422,60.2552189 C277.898422,52.44418 282.282551,48.0013463 291.050689,46.9266421 L302.789578,45.3146364 C302.789578,39.8364586 300.25074,37.0973823 295.173063,37.0973318 C290.330864,37.0973823 285.881419,38.5914216 281.824481,41.5795129 L281.824481,33.5587811 C283.342579,32.641416 285.514938,31.8157521 288.341676,31.0817767 C291.194574,30.3479023 293.785842,29.9809461 296.115227,29.9808956 C306.480033,29.9809461 311.662317,35.2232542 311.662443,45.7078199 L311.662443,71.2247198 L302.710997,71.2247198 L302.711123,71.2247198 Z M294.113027,52.7849213 C291.417039,53.125688 289.519571,53.7940886 288.420257,54.790098 C287.347091,55.7599305 286.810571,57.2671024 286.810571,59.3116012 C286.810571,60.9891312 287.425667,62.3652546 288.655862,63.4399209 C289.885934,64.4883597 291.49562,65.0126044 293.484795,65.0126044 C296.180669,65.0126044 298.405449,64.0820815 300.159146,62.2210734 C301.912729,60.3600527 302.789578,58.0403494 302.789578,55.2619131 L302.789578,51.6447182 L294.113027,52.7849213 L294.113027,52.7849213 Z M342.041424,39.8102186 C340.549596,38.8928409 338.795899,38.4341583 336.78056,38.4341331 C334.163153,38.4341583 332.030081,39.5612541 330.381104,41.8154078 C328.758404,44.0696247 327.946985,47.0053243 327.946985,50.6224814 L327.946985,71.2247198 L318.877819,71.2247198 L318.877819,30.9638481 L327.946985,30.9638481 L327.946985,38.7879692 L328.104147,38.7879692 C330.040893,33.1001238 333.469731,30.2561759 338.390372,30.2561254 C339.98692,30.2561759 341.203979,30.4396161 342.04155,30.8065848 L342.04155,39.8102186 L342.041424,39.8102186 Z M351.069811,21.9602017 C349.525554,21.960227 348.216914,21.4622223 347.143739,20.4661245 C346.070703,19.4439509 345.534179,18.1988761 345.534179,16.7309884 C345.534179,15.2107722 346.070703,13.9395079 347.143739,12.9172332 C348.216914,11.8950091 349.525554,11.383897 351.069811,11.3838339 C352.640207,11.383897 353.961987,11.9081417 355.035149,12.9565427 C356.108198,13.97883 356.644836,15.236987 356.644836,16.7309884 C356.644836,18.1988761 356.108198,19.4439509 355.035149,20.4661245 C353.961987,21.4622223 352.640207,21.960227 351.069811,21.9602017 Z M346.437065,71.2247198 L346.437065,30.9638481 L355.506231,30.9638481 L355.506231,71.2247198 L346.437065,71.2247198 Z M389.782371,71.2247198 L389.782371,48.6172921 C389.782371,41.1470451 387.099523,37.4118963 381.734064,37.4118584 C379.038077,37.4118963 376.77412,38.4472531 374.941968,40.5179413 C373.135968,42.5624654 372.232968,45.1705184 372.232968,48.3420624 L372.232968,71.2247198 L363.163789,71.2247198 L363.163789,30.9638481 L372.232968,30.9638481 L372.232968,37.4118584 L372.390117,37.4118584 C375.321596,32.4579253 379.666308,29.9809461 385.42452,29.9808956 C394.375953,29.9809461 398.85155,35.4853387 398.851676,46.4941744 L398.851676,71.2247198 L389.782497,71.2247198 L389.782371,71.2247198 Z" id="path19352-4" fill="#34495E" sketch:type="MSShapeGroup"></path>
                <path d="M428.054688,48.5390625 L428.054688,71 L424.1875,71 L424.1875,14.984375 L437.703125,14.984375 C443.458362,14.984375 447.85936,16.3189971 450.90625,18.9882812 C453.95314,21.6575654 455.476562,25.557266 455.476562,30.6875 C455.476562,35.8958594 453.777361,40.1731604 450.378906,43.5195312 C446.980452,46.8659021 442.221385,48.5390625 436.101562,48.5390625 L428.054688,48.5390625 Z M428.054688,18.5390625 L428.054688,44.984375 L436.023438,44.984375 C441.075546,44.984375 444.916654,43.77996 447.546875,41.3710938 C450.177096,38.9622275 451.492188,35.5573137 451.492188,31.15625 C451.492188,22.7447496 446.661507,18.5390625 437,18.5390625 L428.054688,18.5390625 Z M466.921875,71 L466.921875,11.78125 L470.515625,11.78125 L470.515625,71 L466.921875,71 Z M507.234375,71 L507.234375,62.9921875 L507.078125,62.9921875 C505.802077,65.7265762 503.946627,67.9075439 501.511719,69.5351562 C499.076811,71.1627686 496.375015,71.9765625 493.40625,71.9765625 C489.604148,71.9765625 486.596365,70.9088648 484.382812,68.7734375 C482.16926,66.6380102 481.0625,63.9427246 481.0625,60.6875 C481.0625,53.7082984 485.68485,49.4895906 494.929688,48.03125 L507.234375,46.1953125 C507.234375,37.6015195 504.005241,33.3046875 497.546875,33.3046875 C493.145811,33.3046875 488.862,35.0755031 484.695312,38.6171875 L484.695312,34.28125 C486.179695,33.1093691 488.191394,32.106775 490.730469,31.2734375 C493.269544,30.4401 495.658843,30.0234375 497.898438,30.0234375 C502.013041,30.0234375 505.196603,31.2994664 507.449219,33.8515625 C509.701834,36.4036586 510.828125,40.114559 510.828125,44.984375 L510.828125,71 L507.234375,71 Z M496.21875,51.078125 C492.026021,51.6770863 489.083342,52.6471287 487.390625,53.9882812 C485.697908,55.3294338 484.851562,57.5104016 484.851562,60.53125 C484.851562,62.9010535 485.639315,64.854159 487.214844,66.390625 C488.790372,67.927091 490.984361,68.6953125 493.796875,68.6953125 C497.651061,68.6953125 500.854154,67.2695455 503.40625,64.4179688 C505.958346,61.566392 507.234375,57.8880434 507.234375,53.3828125 L507.234375,49.4765625 L496.21875,51.078125 Z M538.679688,70.453125 C536.804678,71.3385461 535.046883,71.78125 533.40625,71.78125 C527.494762,71.78125 524.539062,68.2396187 524.539062,61.15625 L524.539062,34.28125 L517.351562,34.28125 L517.351562,31 L524.539062,31 L524.539062,20.609375 C525.111982,20.4010406 525.710934,20.1927094 526.335938,19.984375 C526.960941,19.8020824 527.559893,19.6067719 528.132812,19.3984375 L528.132812,31 L538.679688,31 L538.679688,34.28125 L528.132812,34.28125 L528.132812,60.6875 C528.132812,63.4479305 528.569006,65.4466084 529.441406,66.6835938 C530.313806,67.9205791 531.791656,68.5390625 533.875,68.5390625 C535.359382,68.5390625 536.960929,68.0572965 538.679688,67.09375 L538.679688,70.453125 Z M564.109375,15.5703125 C563.145829,14.8151004 561.68751,14.4375 559.734375,14.4375 C554.812475,14.4375 552.351562,17.7447586 552.351562,24.359375 L552.351562,31 L562.9375,31 L562.9375,34.28125 L552.351562,34.28125 L552.351562,71 L548.757812,71 L548.757812,34.28125 L541.570312,34.28125 L541.570312,31 L548.757812,31 L548.757812,24.046875 C548.757812,19.8281039 549.819,16.6250109 551.941406,14.4375 C554.063813,12.2499891 556.713526,11.15625 559.890625,11.15625 C561.583342,11.15625 562.989578,11.4036434 564.109375,11.8984375 L564.109375,15.5703125 Z M584.734375,71.9765625 C578.901012,71.9765625 574.285173,70.0560088 570.886719,66.2148438 C567.488264,62.3736787 565.789062,57.3802391 565.789062,51.234375 C565.789062,44.5937168 567.566388,39.3984562 571.121094,35.6484375 C574.675799,31.8984188 579.356742,30.0234375 585.164062,30.0234375 C590.867216,30.0234375 595.372379,31.885398 598.679688,35.609375 C601.986996,39.333352 603.640625,44.4895504 603.640625,51.078125 C603.640625,57.3021145 601.954444,62.3411266 598.582031,66.1953125 C595.209619,70.0494984 590.593779,71.9765625 584.734375,71.9765625 L584.734375,71.9765625 Z M585.007812,33.3046875 C580.294247,33.3046875 576.537774,34.8932133 573.738281,38.0703125 C570.938788,41.2474117 569.539062,45.6614301 569.539062,51.3125 C569.539062,56.5469012 570.906236,60.7525883 573.640625,63.9296875 C576.375014,67.1067867 580.111955,68.6953125 584.851562,68.6953125 C589.669295,68.6953125 593.380195,67.1328281 595.984375,64.0078125 C598.588555,60.8827969 599.890625,56.5469027 599.890625,51 C599.890625,45.2968465 598.595065,40.9218902 596.003906,37.875 C593.412747,34.8281098 589.74742,33.3046875 585.007812,33.3046875 L585.007812,33.3046875 Z M632.429688,34.75 C631.231765,33.8906207 629.825529,33.4609375 628.210938,33.4609375 C625.05988,33.4609375 622.416677,35.0885254 620.28125,38.34375 C618.145823,41.5989746 617.078125,46.2213242 617.078125,52.2109375 L617.078125,71 L613.5625,71 L613.5625,31 L617.078125,31 L617.078125,39.8671875 L617.234375,39.8671875 C618.145838,36.8202973 619.591136,34.4505293 621.570312,32.7578125 C623.549489,31.0650957 625.841133,30.21875 628.445312,30.21875 C629.929695,30.21875 631.257807,30.4531227 632.429688,30.921875 L632.429688,34.75 Z M690.125,71 L690.125,46.9375 C690.125,41.9114332 689.337247,38.3828227 687.761719,36.3515625 C686.18619,34.3203023 683.692725,33.3046875 680.28125,33.3046875 C677.130193,33.3046875 674.408866,34.6588406 672.117188,37.3671875 C669.825509,40.0755344 668.679688,43.4739379 668.679688,47.5625 L668.679688,71 L665.085938,71 L665.085938,46.6640625 C665.085938,37.757768 661.700555,33.3046875 654.929688,33.3046875 C651.674463,33.3046875 648.966157,34.665351 646.804688,37.3867188 C644.643218,40.1080865 643.5625,43.6301867 643.5625,47.953125 L643.5625,71 L639.96875,71 L639.96875,31 L643.5625,31 L643.5625,37.640625 L643.71875,37.640625 C646.505222,32.5624746 650.580702,30.0234375 655.945312,30.0234375 C658.861994,30.0234375 661.355458,30.8632729 663.425781,32.5429688 C665.496104,34.2226646 666.89583,36.4296738 667.625,39.1640625 C668.875006,36.273423 670.665353,34.0273518 672.996094,32.4257812 C675.326835,30.8242107 677.859361,30.0234375 680.59375,30.0234375 C689.343794,30.0234375 693.71875,35.44005 693.71875,46.2734375 L693.71875,71 L690.125,71 Z" id="Platform" fill="#3498DB" sketch:type="MSShapeGroup"></path>
                <path d="M29.4311121,0 C26.6763107,0.00585749487 23.9796704,1.57379172 22.5928855,3.96572904 L1.02389212,41.5342563 C-0.341297372,43.9325978 -0.341297372,47.0674022 1.02389212,49.4657437 L22.5928855,87.034271 C23.9798162,89.4262278 26.6763107,90.9945818 29.4311121,91 L72.5689463,91 C75.3237477,90.9941425 78.0202413,89.4262278 79.407172,87.034271 L100.976161,49.4657437 C102.34135,47.0674022 102.341209,43.9325978 100.976161,41.5342563 L79.407172,3.96572904 C78.0202413,1.57379172 75.3237477,0.00541818276 72.5689463,0 L29.4311121,0 L29.4311121,0 Z M29.8225901,21.9780432 C29.8818491,21.9721857 29.9440029,21.9721857 30.0034464,21.9780432 L37.444074,21.9780432 C37.773437,21.9848769 38.0929203,22.1757336 38.2573978,22.4623994 L50.8795281,45.0156389 C50.9430615,45.127146 50.9839987,45.2513835 50.9995323,45.3789012 C51.0150756,45.2513542 51.055974,45.127107 51.1195365,45.0156389 L63.7114564,22.4623994 C63.8811526,22.167045 64.2156021,21.975134 64.5548526,21.9780432 L71.9954831,21.9780432 C72.6543588,21.9839007 73.1477748,22.8160066 72.8390193,23.4008677 L60.5182993,45.5000049 L72.8390193,67.5688685 C73.1769991,68.1570879 72.6714419,69.0277753 71.9954831,69.0219568 L64.5548526,69.0219568 C64.2096733,69.0190281 63.8732468,68.81384 63.7114564,68.5073271 L51.1195365,45.9540876 C51.0560031,45.8425805 51.0150659,45.7183332 50.9995323,45.5908253 C50.983989,45.7183625 50.9430906,45.8426293 50.8795281,45.9540876 L38.2573978,68.5073271 C38.1004103,68.8051709 37.7792269,69.0083967 37.444074,69.0219568 L30.0034464,69.0219568 C29.3274867,69.0278143 28.8220664,68.1570879 29.1600463,67.5688685 L41.4807624,45.5000049 L29.1600463,23.4008677 C28.8647037,22.86725 29.2250368,22.0919422 29.8225901,21.9780432 L29.8225901,21.9780432 Z" id="path20922-3" fill="#34495E" sketch:type="MSShapeGroup"></path>
            </g>
        </g>
    </g>
</svg>