<?xml version="1.0" encoding="UTF-8" standalone="no"?>
<svg width="822px" height="203px" viewBox="0 0 822 203" version="1.1" xmlns="http://www.w3.org/2000/svg" xmlns:xlink="http://www.w3.org/1999/xlink" xmlns:sketch="http://www.bohemiancoding.com/sketch/ns">
    <!-- Generator: Sketch 3.2 (9961) - http://www.bohemiancoding.com/sketch -->
    <title>Xamarin University</title>
    <desc>Created with Sketch.</desc>
    <defs></defs>
    <g id="Page-1" stroke="none" stroke-width="1" fill="none" fill-rule="evenodd" sketch:type="MSPage">
        <g id="Xamarin-University" sketch:type="MSArtboardGroup">
            <g id="Logo" sketch:type="MSLayerGroup" transform="translate(43.000000, 51.000000)">
                <path d="M459.351562,53.6171875 C459.351562,69.190182 452.711004,76.9765625 439.429688,76.9765625 C426.799416,76.9765625 420.484375,69.4766375 420.484375,54.4765625 L420.484375,19.984375 L424.3125,19.984375 L424.3125,53.9296875 C424.3125,66.9245441 429.598905,73.421875 440.171875,73.421875 C450.406301,73.421875 455.523438,67.106834 455.523438,54.4765625 L455.523438,19.984375 L459.351562,19.984375 L459.351562,53.6171875 Z M499.429688,76 L499.429688,52.71875 C499.429688,43.109327 495.96618,38.3046875 489.039062,38.3046875 C485.184877,38.3046875 482.020846,39.7174338 479.546875,42.5429688 C477.072904,45.3685037 475.835938,48.8645625 475.835938,53.03125 L475.835938,76 L472.242188,76 L472.242188,36 L475.835938,36 L475.835938,43.265625 L475.992188,43.265625 C478.908869,37.7708059 483.466115,35.0234375 489.664062,35.0234375 C493.987001,35.0234375 497.294259,36.4622252 499.585938,39.3398438 C501.877616,42.2174623 503.023438,46.3254941 503.023438,51.6640625 L503.023438,76 L499.429688,76 Z M516.8125,25.921875 C516.031246,25.921875 515.341149,25.6354195 514.742188,25.0625 C514.143226,24.4895805 513.84375,23.7604211 513.84375,22.875 C513.84375,22.0156207 514.149737,21.3190131 514.761719,20.7851562 C515.373701,20.2512994 516.057288,19.984375 516.8125,19.984375 C517.619796,19.984375 518.329424,20.2447891 518.941406,20.765625 C519.553388,21.2864609 519.859375,21.9895789 519.859375,22.875 C519.859375,23.7083375 519.559899,24.4244762 518.960938,25.0234375 C518.361976,25.6223988 517.645838,25.921875 516.8125,25.921875 L516.8125,25.921875 Z M515.054688,76 L515.054688,36 L518.648438,36 L518.648438,76 L515.054688,76 Z M544.585938,76 L541.304688,76 L525.835938,36 L529.859375,36 L541.773438,67.8359375 C542.346357,69.3724035 542.749999,70.7656187 542.984375,72.015625 L543.140625,72.015625 C543.479168,70.3749918 543.856769,69.0338594 544.273438,67.9921875 L556.578125,36 L560.484375,36 L544.585938,76 Z M568.570312,56.15625 C568.570312,61.6510691 569.839831,65.9479012 572.378906,69.046875 C574.917981,72.1458488 578.40102,73.6953125 582.828125,73.6953125 C587.307314,73.6953125 591.68227,72.0416832 595.953125,68.734375 L595.953125,72.5625 C591.812479,75.505223 587.19013,76.9765625 582.085938,76.9765625 C576.929662,76.9765625 572.763037,75.1276227 569.585938,71.4296875 C566.408838,67.7317523 564.820312,62.5104504 564.820312,55.765625 C564.820312,49.9322625 566.480452,45.0169471 569.800781,41.0195312 C573.12111,37.0221154 577.437473,35.0234375 582.75,35.0234375 C587.723983,35.0234375 591.539049,36.7682117 594.195312,40.2578125 C596.851576,43.7474133 598.179688,48.5129906 598.179688,54.5546875 L598.179688,56.15625 L568.570312,56.15625 Z M594.429688,52.875 C594.273437,48.265602 593.166677,44.6849086 591.109375,42.1328125 C589.052073,39.5807164 586.21356,38.3046875 582.59375,38.3046875 C578.843731,38.3046875 575.738294,39.5611854 573.277344,42.0742188 C570.816394,44.5872521 569.299482,48.1874766 568.726562,52.875 L594.429688,52.875 Z M626.96875,39.75 C625.770827,38.8906207 624.364591,38.4609375 622.75,38.4609375 C619.598943,38.4609375 616.95574,40.0885254 614.820312,43.34375 C612.684885,46.5989746 611.617188,51.2213242 611.617188,57.2109375 L611.617188,76 L608.101562,76 L608.101562,36 L611.617188,36 L611.617188,44.8671875 L611.773438,44.8671875 C612.6849,41.8202973 614.130198,39.4505293 616.109375,37.7578125 C618.088552,36.0650957 620.380195,35.21875 622.984375,35.21875 C624.468757,35.21875 625.796869,35.4531227 626.96875,35.921875 L626.96875,39.75 Z M633.21875,74.2421875 L633.21875,69.90625 C634.572923,71.0781309 636.213532,72.0026008 638.140625,72.6796875 C640.067718,73.3567742 641.734368,73.6953125 643.140625,73.6953125 C649.416698,73.6953125 652.554688,71.130234 652.554688,66 C652.554688,64.2291578 651.86459,62.7187563 650.484375,61.46875 C649.10416,60.2187437 646.864599,58.9296941 643.765625,57.6015625 C639.937481,55.9348875 637.248706,54.2096443 635.699219,52.4257812 C634.149732,50.6419182 633.375,48.4739711 633.375,45.921875 C633.375,42.6666504 634.618477,40.0364684 637.105469,38.03125 C639.59246,36.0260316 642.658836,35.0234375 646.304688,35.0234375 C649.742205,35.0234375 652.684884,35.7265555 655.132812,37.1328125 L655.132812,41.1953125 C652.164048,39.2682195 649.091162,38.3046875 645.914062,38.3046875 C643.283841,38.3046875 641.161466,38.9882744 639.546875,40.3554688 C637.932284,41.7226631 637.125,43.4999891 637.125,45.6875 C637.125,47.5885512 637.632807,49.1315045 638.648438,50.3164062 C639.664068,51.501308 641.903629,52.8619715 645.367188,54.3984375 C649.533875,56.2734469 652.39843,58.0117107 653.960938,59.6132812 C655.523445,61.2148518 656.304688,63.3437367 656.304688,66 C656.304688,69.1770992 655.113293,71.8007709 652.730469,73.8710938 C650.347644,75.9414166 647.059917,76.9765625 642.867188,76.9765625 C639.013002,76.9765625 635.796888,76.0651133 633.21875,74.2421875 L633.21875,74.2421875 Z M668.101562,25.921875 C667.320309,25.921875 666.630211,25.6354195 666.03125,25.0625 C665.432289,24.4895805 665.132812,23.7604211 665.132812,22.875 C665.132812,22.0156207 665.438799,21.3190131 666.050781,20.7851562 C666.662763,20.2512994 667.34635,19.984375 668.101562,19.984375 C668.908858,19.984375 669.618487,20.2447891 670.230469,20.765625 C670.842451,21.2864609 671.148438,21.9895789 671.148438,22.875 C671.148438,23.7083375 670.848961,24.4244762 670.25,25.0234375 C669.651039,25.6223988 668.9349,25.921875 668.101562,25.921875 L668.101562,25.921875 Z M666.34375,76 L666.34375,36 L669.9375,36 L669.9375,76 L666.34375,76 Z M698.570312,75.453125 C696.695303,76.3385461 694.937508,76.78125 693.296875,76.78125 C687.385387,76.78125 684.429688,73.2396187 684.429688,66.15625 L684.429688,39.28125 L677.242188,39.28125 L677.242188,36 L684.429688,36 L684.429688,25.609375 C685.002607,25.4010406 685.601559,25.1927094 686.226562,24.984375 C686.851566,24.8020824 687.450518,24.6067719 688.023438,24.3984375 L688.023438,36 L698.570312,36 L698.570312,39.28125 L688.023438,39.28125 L688.023438,65.6875 C688.023438,68.4479305 688.459631,70.4466084 689.332031,71.6835938 C690.204431,72.9205791 691.682281,73.5390625 693.765625,73.5390625 C695.250007,73.5390625 696.851554,73.0572965 698.570312,72.09375 L698.570312,75.453125 Z M716.265625,84.1640625 C714.807284,87.7578305 713.192717,90.4270746 711.421875,92.171875 C709.651033,93.9166754 707.37241,94.7890625 704.585938,94.7890625 C703.414057,94.7890625 702.3724,94.6067727 701.460938,94.2421875 L701.460938,90.6484375 C702.398442,91.0130227 703.492181,91.1953125 704.742188,91.1953125 C707.945329,91.1953125 710.471345,88.981793 712.320312,84.5546875 L716.03125,75.6875 L700.875,36 L704.898438,36 L716.96875,68.578125 C717.229168,69.2812535 717.411458,69.8151023 717.515625,70.1796875 C717.619792,70.6744816 717.736979,71.1171855 717.867188,71.5078125 L718.023438,71.5078125 L718.960938,68.8125 L731.851562,36 L735.757812,36 L716.265625,84.1640625 Z" id="University" fill="#3498DB" sketch:type="MSShapeGroup"></path>
                <path d="M158.830343,76.2247198 L148.514207,56.430391 L137.962593,76.2247198 L126.616332,76.2247198 L142.703693,50.6779432 L128.226018,25.2884425 L139.729307,25.2884425 L149.122673,44.5780614 L159.301425,25.2884425 L169.823261,25.2884425 L154.952956,50.5206546 L170.05874,76.2247198 L158.830343,76.2247198 Z M195.615791,76.2247198 L195.615791,70.6809924 L195.458639,70.6809924 C192.658046,75.0320997 188.692824,77.207647 183.56272,77.207647 C179.610509,77.207647 176.495862,76.1329934 174.218777,73.9836482 C171.941692,71.8080882 170.803087,68.8986034 170.803087,65.2552189 C170.803087,57.44418 175.187216,53.0013463 183.955351,51.9266421 L195.694242,50.3146364 C195.694242,44.8364586 193.155404,42.0973823 188.077726,42.0973318 C183.235652,42.0973823 178.786084,43.5914216 174.729147,46.5795129 L174.729147,38.5587811 C176.247245,37.641416 178.419604,36.8157521 181.246347,36.0817767 C184.099365,35.3479023 186.690504,34.9809461 189.020015,34.9808956 C199.384699,34.9809461 204.566978,40.2232542 204.567103,50.7078199 L204.567103,76.2247198 L195.615666,76.2247198 L195.615791,76.2247198 Z M187.017697,57.7849213 C184.321831,58.125688 182.424239,58.7940886 181.324923,59.790098 C180.251757,60.7599305 179.715236,62.2671024 179.715236,64.3116012 C179.715236,65.9891312 180.330333,67.3652546 181.560527,68.4399209 C182.790595,69.4883597 184.400282,70.0126044 186.389463,70.0126044 C189.085329,70.0126044 191.310113,69.0820815 193.063815,67.2210734 C194.817391,65.3600527 195.694242,63.0403494 195.694242,60.2619131 L195.694242,56.6447182 L187.017697,57.7849213 L187.017697,57.7849213 Z M262.452278,76.2247198 L262.452278,53.4993257 C262.452152,49.7511201 261.86333,46.9726964 260.685563,45.1640926 C259.53382,43.3293119 257.466064,42.4118963 254.482418,42.4118584 C252.100482,42.4118963 250.098289,43.5127773 248.475588,45.7145142 C246.852764,47.890112 246.041352,50.5243671 246.041352,53.6172921 L246.041352,76.2247198 L236.9723,76.2247198 L236.9723,52.7129966 C236.972176,45.8456006 234.341747,42.4118963 229.080892,42.4118584 C226.620629,42.4118963 224.592161,43.4472531 222.995487,45.5179413 C221.425087,47.5886801 220.639951,50.2884469 220.639951,53.6172921 L220.639951,76.2247198 L211.570775,76.2247198 L211.570775,35.9638481 L220.639951,35.9638481 L220.639951,42.1759761 L220.796978,42.1759761 C223.702297,37.3793063 227.942412,34.9809461 233.517448,34.9808956 C236.187038,34.9809461 238.542699,35.6886563 240.584306,37.1040513 C242.651937,38.4932821 244.104597,40.4198271 244.94216,42.8836736 C248.004506,37.6152013 252.506376,34.9809461 258.447766,34.9808956 C267.189624,34.9809461 271.560617,40.4329471 271.560742,51.336911 L271.560742,76.2247198 L262.452278,76.2247198 L262.452278,76.2247198 Z M301.711123,76.2247198 L301.711123,70.6809924 L301.553974,70.6809924 C298.75338,75.0320997 294.788029,77.207647 289.658049,77.207647 C285.705843,77.207647 282.591196,76.1329934 280.314111,73.9836482 C278.037026,71.8080882 276.898422,68.8986034 276.898422,65.2552189 C276.898422,57.44418 281.282551,53.0013463 290.050689,51.9266421 L301.789578,50.3146364 C301.789578,44.8364586 299.25074,42.0973823 294.173063,42.0973318 C289.330864,42.0973823 284.881419,43.5914216 280.824481,46.5795129 L280.824481,38.5587811 C282.342579,37.641416 284.514938,36.8157521 287.341676,36.0817767 C290.194574,35.3479023 292.785842,34.9809461 295.115227,34.9808956 C305.480033,34.9809461 310.662317,40.2232542 310.662443,50.7078199 L310.662443,76.2247198 L301.710997,76.2247198 L301.711123,76.2247198 Z M293.113027,57.7849213 C290.417039,58.125688 288.519571,58.7940886 287.420257,59.790098 C286.347091,60.7599305 285.810571,62.2671024 285.810571,64.3116012 C285.810571,65.9891312 286.425667,67.3652546 287.655862,68.4399209 C288.885934,69.4883597 290.49562,70.0126044 292.484795,70.0126044 C295.180669,70.0126044 297.405449,69.0820815 299.159146,67.2210734 C300.912729,65.3600527 301.789578,63.0403494 301.789578,60.2619131 L301.789578,56.6447182 L293.113027,57.7849213 L293.113027,57.7849213 Z M341.041424,44.8102186 C339.549596,43.8928409 337.795899,43.4341583 335.78056,43.4341331 C333.163153,43.4341583 331.030081,44.5612541 329.381104,46.8154078 C327.758404,49.0696247 326.946985,52.0053243 326.946985,55.6224814 L326.946985,76.2247198 L317.877819,76.2247198 L317.877819,35.9638481 L326.946985,35.9638481 L326.946985,43.7879692 L327.104147,43.7879692 C329.040893,38.1001238 332.469731,35.2561759 337.390372,35.2561254 C338.98692,35.2561759 340.203979,35.4396161 341.04155,35.8065848 L341.04155,44.8102186 L341.041424,44.8102186 Z M350.069811,26.9602017 C348.525554,26.960227 347.216914,26.4622223 346.143739,25.4661245 C345.070703,24.4439509 344.534179,23.1988761 344.534179,21.7309884 C344.534179,20.2107722 345.070703,18.9395079 346.143739,17.9172332 C347.216914,16.8950091 348.525554,16.383897 350.069811,16.3838339 C351.640207,16.383897 352.961987,16.9081417 354.035149,17.9565427 C355.108198,18.97883 355.644836,20.236987 355.644836,21.7309884 C355.644836,23.1988761 355.108198,24.4439509 354.035149,25.4661245 C352.961987,26.4622223 351.640207,26.960227 350.069811,26.9602017 Z M345.437065,76.2247198 L345.437065,35.9638481 L354.506231,35.9638481 L354.506231,76.2247198 L345.437065,76.2247198 Z M388.782371,76.2247198 L388.782371,53.6172921 C388.782371,46.1470451 386.099523,42.4118963 380.734064,42.4118584 C378.038077,42.4118963 375.77412,43.4472531 373.941968,45.5179413 C372.135968,47.5624654 371.232968,50.1705184 371.232968,53.3420624 L371.232968,76.2247198 L362.163789,76.2247198 L362.163789,35.9638481 L371.232968,35.9638481 L371.232968,42.4118584 L371.390117,42.4118584 C374.321596,37.4579253 378.666308,34.9809461 384.42452,34.9808956 C393.375953,34.9809461 397.85155,40.4853387 397.851676,51.4941744 L397.851676,76.2247198 L388.782497,76.2247198 L388.782371,76.2247198 Z" id="path19352-4" fill="#34495E" sketch:type="MSShapeGroup"></path>
                <path d="M42.0981769,98.2284713 C40.5189991,97.4034571 38.9407346,96.5149676 37.3718588,95.5613476 L37.3718588,95.5613476 L34.3376557,97.2280182 C34.1414129,97.3352227 33.8904796,97.3287743 33.6934325,97.2102851 L30.6894708,95.3789418 C30.5631998,95.2991429 30.466687,95.1742053 30.4184306,95.0307286 C30.4707084,94.8904761 30.5736554,94.7679566 30.7087733,94.691382 L33.5846439,93.1164605 C32.2492965,92.2020126 30.9260391,91.2381099 29.6203108,90.2236901 L29.6203108,90.2236901 C29.584074,90.2448566 29.545943,90.262138 29.5064165,90.274588 L26.162247,91.3716207 C25.9507231,91.4401349 25.7022026,91.3869357 25.5316966,91.2394287 L22.9145904,88.8849595 C22.8060134,88.7866215 22.7304117,88.6447569 22.7078921,88.4932197 C22.7923408,88.3634458 22.9121775,88.2586594 23.0577511,88.2159388 L26.013199,87.2493029 C24.8588162,86.2393389 23.7402236,85.2020273 22.6589888,84.1370771 L22.6589888,84.1370771 L19.2945229,85.0491335 C19.0757605,85.1095871 18.8312613,85.0402669 18.6720151,84.8822813 L16.1771585,82.3972322 C16.0758201,82.2900277 16.0090654,82.1409086 15.9953927,81.9942077 C16.0846671,81.8716882 16.2117423,81.7765744 16.3581201,81.736272 L19.5392179,80.8704934 C18.582201,79.8038858 17.6604612,78.7119637 16.775351,77.5944761 C16.7398945,77.6052533 16.7032356,77.6125862 16.6656421,77.6159751 L13.1686607,77.9948182 C12.9426598,78.0214178 12.7134418,77.9158254 12.5799324,77.7352704 L10.500081,74.8955597 C10.414828,74.7714281 10.3730057,74.6231151 10.382657,74.4715779 C10.4839955,74.357925 10.6255476,74.2861866 10.7791639,74.2668415 L14.0542688,73.9085212 L14.0542688,73.9085212 C13.2991518,72.8084642 12.5775476,71.6856715 11.8905728,70.539936 L11.8905728,70.539936 L8.37966195,70.4707375 C8.15446535,70.4650952 7.93972431,70.3337092 7.82793029,70.1378393 L6.13010879,67.0547018 C6.05531134,66.9208976 6.03922587,66.7612999 6.06415835,66.614599 C6.18158229,66.5194852 6.33359,66.4622557 6.48318488,66.467092 L9.67582028,66.527878 C9.002752,65.1979625 8.37390276,63.8394992 7.79079889,62.4522046 L4.5231702,62.0375625 C4.30038642,62.012575 4.1001223,61.8570075 4.00923939,61.6490469 L2.6427786,58.4030875 C2.588088,58.2612229 2.58084953,58.1008191 2.62669313,57.9589545 C2.75055126,57.8783496 2.90577606,57.8388532 3.05939231,57.8565863 L6.19659618,58.2516867 L6.19659618,58.2516867 C5.71456717,56.8338816 5.27805659,55.3880348 4.88850742,53.9138785 L4.88850742,53.9138785 L1.50994319,52.9436853 C1.2968107,52.8816195 1.12308761,52.7018706 1.06678846,52.4802071 L0.212649931,49.0649774 C0.176457621,48.9158583 0.198173007,48.7562606 0.260102072,48.6240686 C0.400849946,48.5603907 0.559291838,48.5450758 0.703256807,48.5886024 L3.87955559,49.4962812 C3.70855876,48.6127018 3.55369746,47.7195922 3.41524966,46.816901 L1.36292199,43.991318 C1.22619548,43.8083449 1.20287155,43.5584697 1.28892882,43.3521211 L2.71410158,40.1295372 C2.77200928,39.9925088 2.88782467,39.8812741 3.02133408,39.8111478 C3.17092897,39.8498382 3.30282983,39.9328612 3.3921042,40.0545746 L5.53468898,43.5415426 L4.22696291,46.5130568 L4.22696291,46.5130568 C4.37129449,47.4702231 4.53428142,48.4164924 4.71558793,49.3519304 L4.71558593,49.3519321 L7.18409321,47.2474336 C7.30151715,47.1515138 7.45432913,47.0991206 7.60070692,47.0967024 C7.71973941,47.1950404 7.80418813,47.3280385 7.83072916,47.4787697 L8.46449673,50.9439744 C8.50229759,51.1632197 8.41543604,51.4058405 8.24975569,51.5501233 L5.71354083,53.7152024 C6.09517803,55.1574662 6.52236398,56.5722621 6.99372274,57.9598602 L9.28427669,55.3567381 C9.38481089,55.2422791 9.52555876,55.1681226 9.67434937,55.1447472 C9.80866306,55.2269642 9.90919725,55.3454534 9.95664939,55.4889301 L11.0794153,58.8300033 C11.1453657,59.039576 11.0955008,59.2926754 10.9515358,59.4619457 L8.62798946,62.1065926 C8.6142005,62.1217177 8.59966402,62.1361231 8.58446907,62.1497809 L8.58446907,62.1497809 C9.1775408,63.5588238 9.81846072,64.9377426 10.5056001,66.286857 C10.5112865,66.2767212 10.5172648,66.2667535 10.5235336,66.2569712 L12.4095551,63.2842624 C12.4907867,63.1544885 12.621079,63.0625989 12.7634355,63.0190723 C12.9017705,63.0722715 13.0248244,63.1778639 13.0939919,63.3132802 L14.7162117,66.4375262 C14.819963,66.6398445 14.8070946,66.8937499 14.6880621,67.0823654 L12.8012363,70.0550741 C12.7667512,70.1081137 12.7241489,70.1560688 12.6751524,70.197151 L12.6751524,70.197151 C13.3522865,71.3220603 14.0633145,72.424565 14.8071579,73.504877 L14.8071579,73.504877 C14.8192142,73.4557172 14.8366919,73.4078313 14.8594367,73.3624222 L16.5258915,70.2615517 C16.5998847,70.1285536 16.7205257,70.0245732 16.8604693,69.9673438 C17.0076514,70.0189309 17.1323138,70.1132386 17.2095241,70.2446246 L19.058549,73.2407088 C19.1775815,73.4317424 19.1840157,73.6848418 19.0770473,73.8823238 L17.4130053,76.9840005 C17.4080614,76.9936317 17.402872,77.0030707 17.3974489,77.0123161 C18.2761826,78.1241291 19.1916585,79.2104274 20.1425257,80.2714762 L21.3876931,77.0381669 C21.4447965,76.8946902 21.5493521,76.7737829 21.6796444,76.7004324 C21.8308478,76.7310623 21.9691829,76.8100551 22.0665,76.9220959 L24.2702096,79.6715291 C24.4077403,79.8448296 24.447954,80.0963169 24.3659181,80.3066957 L23.1635893,83.4421107 L23.1635893,83.4421107 C24.2762185,84.541742 25.4291825,85.6117514 26.6207364,86.6524812 L27.3270282,83.5582652 C27.364829,83.407534 27.4541034,83.2769541 27.5739402,83.1834524 C27.7243393,83.1915129 27.8739342,83.2519666 27.9825111,83.3527227 L30.5585994,85.757973 C30.7218669,85.9095102 30.7982729,86.1545491 30.7435823,86.3770186 L30.037441,89.4721143 L30.037441,89.4721144 C31.3331144,90.4820792 32.6465045,91.4417582 33.9721208,92.3521751 L34.0974031,89.3722 C34.1022287,89.2214689 34.1657663,89.0715437 34.264692,88.961115 C34.4158954,88.9433819 34.5719245,88.9723997 34.7022168,89.0489744 L37.6723991,90.9383533 C37.8581863,91.0568425 37.9756102,91.2865664 37.9659589,91.5082299 L37.832631,94.8472603 L37.832631,94.8472603 C39.3584122,95.7740813 40.8931327,96.638692 42.428761,97.4425903 L42.428761,97.4425904 L42.0788853,94.4210331 C42.0571699,94.2694959 42.0989921,94.1147345 42.1794195,93.9881848 C42.3274058,93.9470763 42.486652,93.9511065 42.624987,94.0099481 L45.8493197,95.4116674 C46.0560181,95.4987207 46.2104386,95.7066813 46.232154,95.9291508 L46.643942,99.4274036 C46.6458746,99.449165 46.6467146,99.470862 46.6464959,99.4924445 C47.210146,99.7443408 47.7555843,99.9787821 48.2811798,100.196075 C48.8405374,100.427327 49.3366267,100.622084 49.763687,100.781435 C49.9470057,100.849837 50.0886297,100.901041 50.1864132,100.935451 L50.1864132,100.935451 C50.2841945,100.901041 50.4258147,100.849839 50.609128,100.781439 C51.036179,100.622091 51.5322575,100.427339 52.0916029,100.196093 C52.6173894,99.9787206 53.1630335,99.7441877 53.7269025,99.4921866 C53.7267767,99.4706891 53.7277149,99.4490783 53.729753,99.4274036 L54.1399325,95.9291508 C54.1624522,95.7066813 54.3168727,95.4987207 54.523571,95.4116674 L57.7479038,94.0099481 C57.8862388,93.9511065 58.0446807,93.9470763 58.1934713,93.9881848 C58.2730944,94.1147345 58.3149166,94.2694959 58.2940055,94.4210331 L57.9448739,97.4421577 L57.9448739,97.4421577 C59.480243,96.6383701 61.014703,95.7738892 62.540226,94.8472179 L62.540226,94.8472179 L62.4068997,91.5082299 C62.3964441,91.2865664 62.5138681,91.0568425 62.7012638,90.9383533 L65.6714461,89.0489744 C65.8009341,88.9723997 65.9569632,88.9433819 66.1081666,88.961115 C66.2070923,89.0715437 66.2698256,89.2214689 66.2746513,89.3722 L66.3999534,92.3526476 C67.7257706,91.442106 69.0393581,90.482287 70.3352229,89.472166 L70.3352229,89.4721659 L69.6283433,86.3770186 C69.5736527,86.1545491 69.650863,85.9095102 69.8141305,85.757973 L72.3902188,83.3527227 C72.4996,83.2519666 72.6475863,83.1915129 72.7987897,83.1834524 C72.9194308,83.2769541 73.0070966,83.407534 73.046506,83.5582652 L73.7526585,86.6518711 C74.9441945,85.6111214 76.0971386,84.5410914 77.2097461,83.4414388 L77.2097461,83.4414388 L76.0069083,80.3066957 C75.9248724,80.0963169 75.9650861,79.8448296 76.1026169,79.6715291 L78.3071307,76.9220959 C78.4044478,76.8100551 78.5427829,76.7310623 78.6939863,76.7004324 C78.8226701,76.7737829 78.9280299,76.8946902 78.9851333,77.0381669 L80.23079,80.2706906 C81.1814806,79.2097902 82.0967895,78.1236477 82.9753664,77.0119982 C82.9699701,77.0028543 82.9647955,76.9935213 82.9598533,76.9840005 L81.295007,73.8823238 C81.1896472,73.6848418 81.1960814,73.4317424 81.3143096,73.2407088 L83.1625302,70.2446246 C83.2405448,70.1132386 83.3652072,70.0189309 83.5123892,69.9673438 C83.6523328,70.0245732 83.7721696,70.1285536 83.8461628,70.2615517 L85.5126176,73.3624222 C85.5355472,73.4078399 85.5531674,73.4557354 85.5653324,73.5049051 L85.5653324,73.5049051 C86.3092494,72.4244627 87.0203423,71.321822 87.6975323,70.1967713 L87.6975323,70.1967713 C87.6486047,70.1557734 87.6059099,70.1079504 87.5708502,70.0550741 L85.6856329,67.0823654 C85.5657962,66.8937499 85.5537321,66.6398445 85.6566791,66.4375262 L87.2788989,63.3132802 C87.3480664,63.1778639 87.4719245,63.0722715 87.608651,63.0190723 C87.752616,63.0625989 87.8812998,63.1544885 87.9633357,63.2842624 L89.8501615,66.2569712 C89.8561597,66.2663946 89.8618925,66.27599 89.8673581,66.285742 C90.5543171,64.93687 91.195073,63.5582048 91.787998,62.149427 L91.787998,62.149427 C91.7729436,62.1358743 91.758539,62.1215871 91.7448691,62.1065926 L89.4213228,59.4619457 C89.2773578,59.2926754 89.2274929,59.039576 89.2934433,58.8300033 L90.4162092,55.4889301 C90.4636613,55.3454534 90.5641955,55.2269642 90.6985092,55.1447472 C90.8472998,55.1681226 90.9872434,55.2422791 91.0877776,55.3567381 L93.3789089,57.9587149 C93.8501986,56.5711586 94.277318,55.1564067 94.6588911,53.7141889 L92.1231029,51.5501233 C91.9566183,51.4058405 91.8697567,51.1632197 91.9091661,50.9439744 L92.5421294,47.4787697 C92.5686705,47.3280385 92.6523149,47.1950404 92.7721517,47.0967024 C92.9177252,47.0991206 93.0705372,47.1515138 93.1879611,47.2474336 L95.6565962,49.3514089 L95.6565942,49.3514072 C95.8378519,48.4160889 96.0007945,47.4699422 96.1450862,46.5129013 L96.1450862,46.5129013 L94.8389095,43.5415426 L96.9806901,40.0545746 C97.0699644,39.9328612 97.2018653,39.8498382 97.3506559,39.8111478 C97.4849696,39.8812741 97.600785,39.9925088 97.6586927,40.1295372 L99.0838654,43.3521211 C99.1699227,43.5584697 99.1457945,43.8083449 99.0106765,43.991318 L96.9567862,46.816857 C96.8183428,47.7196367 96.6634824,48.6128329 96.4924831,49.4964972 L99.6695374,48.5886024 C99.8135024,48.5450758 99.9727486,48.5603907 100.111888,48.6240686 C100.174621,48.7562606 100.197141,48.9158583 100.160949,49.0649774 L99.3068101,52.4802071 C99.2497066,52.7018706 99.0759836,52.8816195 98.8620468,52.9436853 L95.4835384,53.9143236 L95.4835384,53.9143236 C95.0940387,55.3883548 94.6575845,56.8340809 94.1756185,58.2517698 L94.1756185,58.2517698 L97.3142062,57.8565863 C97.4670182,57.8388532 97.622243,57.8783496 97.7461011,57.9589545 C97.7919447,58.1008191 97.7847063,58.2612229 97.7308199,58.4030875 L96.3643591,61.6490469 C96.2734762,61.8570075 96.0716036,62.012575 95.8488198,62.0375625 L92.5815373,62.4521607 C91.998451,63.8394742 91.3696172,65.1979556 90.6965624,66.5278884 L93.890478,66.467092 C94.0392686,66.4622557 94.1912763,66.5194852 94.3087002,66.614599 C94.3328284,66.7612999 94.3175473,66.9208976 94.2419455,67.0547018 L92.5457326,70.1378393 C92.4331343,70.3337092 92.2183932,70.4650952 91.9940009,70.4707375 L88.4818866,70.539928 L88.4818866,70.539928 C87.7949503,71.6856308 87.073386,72.8083919 86.3183101,73.9084186 L86.3183101,73.9084186 L89.5935982,74.2668415 C89.7472145,74.2861866 89.8895709,74.357925 89.9909093,74.4715779 C90.0005606,74.6231151 89.9579341,74.7714281 89.8726811,74.8955597 L87.793634,77.7352704 C87.6601245,77.9158254 87.4309066,78.0214178 87.2049057,77.9948182 L83.70712,77.6159751 C83.6694737,77.6125815 83.6327648,77.6052327 83.5972497,77.5944307 C82.7121542,78.7119228 81.790428,79.8038491 80.8334238,80.8704606 L84.014642,81.736272 C84.1610198,81.7765744 84.288095,81.8716882 84.3773694,81.9942077 C84.3628925,82.1409086 84.296942,82.2900277 84.1956036,82.3972322 L81.6999427,84.8822813 C81.5415008,85.0402669 81.2978059,85.1095871 81.0782392,85.0491335 L77.7138627,84.1368853 L77.7138627,84.1368853 C76.6325426,85.2019411 75.5138566,86.2393528 74.3593727,87.2494116 L77.3159118,88.2159388 C77.460681,88.2586594 77.5797135,88.3634458 77.6649665,88.4932197 C77.6424469,88.6447569 77.5668452,88.7866215 77.4590725,88.8849595 L74.8403578,91.2394287 C74.670656,91.3869357 74.4229398,91.4401349 74.2106116,91.3716207 L70.8664421,90.274588 C70.8270428,90.2621067 70.7889185,90.2447698 70.7526255,90.2235306 L70.7526255,90.2235306 C69.4468588,91.2379959 68.1235608,92.2019398 66.7881713,93.1164246 L69.6648574,94.691382 C69.7999753,94.7679566 69.9029223,94.8904761 69.9543958,95.0307286 C69.9061394,95.1742053 69.8104309,95.2991429 69.6833557,95.3789418 L66.6793939,97.2102851 C66.4823469,97.3287743 66.2306092,97.3352227 66.0351708,97.2280182 L63.0009469,95.5613362 L63.0009469,95.5613362 C61.432076,96.5149592 59.8538158,97.4034507 58.274642,98.228466 L58.2746422,98.2284661 L60.9947883,100.125216 C61.120255,100.213882 61.2087251,100.349298 61.249743,100.490357 C61.1862054,100.631415 61.0768242,100.74668 60.9360763,100.81197 L57.7559787,102.303967 C57.5549103,102.402305 57.2999555,102.382154 57.1149726,102.249962 L54.2276305,100.238869 C54.2164641,100.230812 54.2055389,100.222374 54.1948772,100.213581 C53.5800885,100.489789 52.9861361,100.745753 52.4150284,100.981862 C51.8464499,101.216926 51.3412081,101.415275 50.905052,101.57802 C50.6418945,101.676213 50.4593382,101.74101 50.3631323,101.773516 L50.1864132,101.248185 L50.0096941,101.773516 C49.9134862,101.741009 49.7309261,101.676211 49.4677629,101.578016 C49.0315974,101.415268 48.5263449,101.216913 47.9577541,100.981845 C47.3867391,100.745774 46.7928875,100.489855 46.1782063,100.213699 C46.1677113,100.22245 46.1569684,100.230848 46.1460002,100.238869 L43.2570495,102.249962 C43.0728709,102.382154 42.8179162,102.402305 42.617652,102.303967 L39.4367501,100.81197 C39.2960022,100.74668 39.186621,100.631415 39.1222791,100.490357 C39.1641013,100.349298 39.2525714,100.213882 39.3780381,100.125216 L42.0981766,98.2284713 L42.0981769,98.2284713 Z M65.8018027,57.4049409 L60.2756391,57.4049409 C60.0182715,57.4033288 59.7625125,57.25824 59.6442843,57.0277099 L50.2728887,40.2949384 C50.2318708,40.2151396 50.1980913,40.1280863 50.18844,40.0281362 C50.1747673,40.1280863 50.1434007,40.2151396 50.0975571,40.2949384 L40.7076632,57.0277099 C40.589435,57.2517916 40.3505657,57.3984925 40.1084794,57.4049409 L34.568643,57.4049409 C34.062755,57.4162256 33.6903763,56.7673561 33.9445267,56.3304775 L43.1027899,39.959622 L33.9445267,23.5686153 C33.7233515,23.1752634 33.986349,22.5981323 34.4375464,22.511079 C34.4785644,22.5070487 34.5276251,22.5070487 34.568643,22.511079 L40.1084794,22.511079 C40.3505657,22.5159153 40.5862179,22.6634222 40.7076632,22.8681587 L50.0975571,39.5960939 C50.1434007,39.6839533 50.1747673,39.7806792 50.18844,39.8709566 C50.1980913,39.7806792 50.2318708,39.6839533 50.2728887,39.5960939 L59.6442843,22.8681587 C59.7649253,22.6537497 60.0182715,22.511079 60.2756391,22.511079 L65.8018027,22.511079 C66.2924096,22.5159153 66.6615712,23.1373791 66.4267233,23.5686153 L57.2724816,39.959622 L66.4267233,56.3304775 C66.6832866,56.7673561 66.3084951,57.4162256 65.8018027,57.4049409 Z M87.0048668,32.1385284 C86.9268522,31.3445701 86.6984386,30.5667328 86.302736,29.8751428 L70.7392382,2.83945275 C69.7395261,1.11934415 67.7931841,-0.00993052388 65.8066284,-0.013960769 L50.1860272,-0.013960769 L34.5670345,-0.013960769 C32.5796745,-0.00993052388 30.6333325,1.11934415 29.6336204,2.83945275 L14.0701226,29.8751428 C13.67442,30.5667328 13.4452021,31.3445701 13.3671875,32.1385284 C13.3535149,32.2602418 13.4218781,33.8787883 13.5964055,34.4478589 C14.5776193,40.7342351 16.4708792,48.8696879 20.1713419,57.0817152 C20.1713419,57.0817152 26.3537928,69.9309426 32.237054,75.2589266 C36.9766381,80.1975889 42.8534651,84.5591201 50.1691374,87.7760618 L50.1699417,87.7760618 C50.1763759,87.7736436 50.1812015,87.7712255 50.1860272,87.7688073 C50.1924613,87.7712255 50.197287,87.7736436 50.2021126,87.7760618 L50.2045255,87.7760618 C57.5201978,84.5591201 63.3970248,80.1975889 68.1358046,75.2589266 C74.0190658,69.9309426 80.2015167,57.0817152 80.2015167,57.0817152 C83.9027836,48.8696879 85.7952393,40.7342351 86.7772574,34.4478589 C86.9509805,33.8787883 87.0193437,32.2602418 87.0048668,32.1385284" id="path510" fill="#34495E" sketch:type="MSShapeGroup"></path>
            </g>
        </g>
    </g>
</svg>