<?xml version="1.0" encoding="UTF-8" standalone="no"?>
<svg width="746px" height="203px" viewBox="0 0 746 203" version="1.1" xmlns="http://www.w3.org/2000/svg" xmlns:xlink="http://www.w3.org/1999/xlink" xmlns:sketch="http://www.bohemiancoding.com/sketch/ns">
    <!-- Generator: Sketch 3.2 (9961) - http://www.bohemiancoding.com/sketch -->
    <title>Xamarin Insights</title>
    <desc>Created with Sketch.</desc>
    <defs></defs>
    <g id="Page-1" stroke="none" stroke-width="1" fill="none" fill-rule="evenodd" sketch:type="MSPage">
        <g id="Xamarin-Insights" sketch:type="MSArtboardGroup">
            <g id="Logo" sketch:type="MSLayerGroup" transform="translate(43.000000, 51.000000)">
                <g sketch:type="MSShapeGroup">
                    <path d="M433.365265,19.9803584 L433.365265,23.5222279 L427.863651,23.5222279 L427.863651,72.8722168 L433.365265,72.8722168 L433.365265,76.4140863 L418.471648,76.4140863 L418.471648,72.8722168 L423.973235,72.8722168 L423.973235,23.5222279 L418.471648,23.5222279 L418.471648,19.9803584 L433.365265,19.9803584 Z M468.100062,76.4140863 L468.100062,52.9590521 C468.100036,43.2779905 464.61569,38.4374463 457.647025,38.4374195 C453.769689,38.4374463 450.586639,39.8673253 448.097821,42.7270026 C445.609002,45.5605358 444.36458,49.0761537 444.364607,53.2738832 L444.364607,76.4140863 L440.749273,76.4140863 L440.749273,36.1155237 L444.364607,36.1155237 L444.364607,43.4353926 L444.521674,43.4353926 C447.455856,37.8996111 452.04053,35.1317068 458.275669,35.13168 C462.624528,35.1317068 465.951699,36.5878105 468.257156,39.4999642 C470.56256,42.3859737 471.715262,46.5181547 471.715289,51.8965074 L471.715289,76.4140863 L468.099955,76.4140863 L468.100062,76.4140863 Z M480.985685,74.6431516 L480.985685,70.2748405 C482.347988,71.4554637 483.998454,72.3868579 485.937108,73.0689963 C487.875763,73.7511347 489.552442,74.0921905 490.967146,74.0921905 C497.280872,74.0921905 500.437736,71.50794 500.437762,66.3394389 C500.437736,64.5554053 499.743477,63.0337263 498.355014,61.7743753 C496.966497,60.5150511 494.713467,59.2163763 491.595897,57.8783242 C487.744775,56.1992432 485.033275,54.4676589 483.461397,52.6835716 C481.915705,50.8733132 481.142859,48.6826216 481.142859,46.1114432 C481.142859,42.8319821 482.387282,40.1821563 484.876101,38.1619389 C487.391106,36.1418021 490.482489,35.1317068 494.150223,35.13168 C497.608355,35.1317068 500.568723,35.8400968 503.031382,37.2567963 L503.031382,41.3496268 C500.044773,39.4081911 496.95339,38.4374463 493.75726,38.4374195 C491.11124,38.4374463 488.976091,39.1327105 487.351812,40.5231853 C485.727533,41.8874889 484.915394,43.6715495 484.915394,45.87534 C484.915394,47.7905779 485.426238,49.3516342 486.447979,50.5584553 C487.469693,51.7391053 489.722723,53.1033821 493.207096,54.6512858 C497.398753,56.5402989 500.280561,58.2981079 501.852466,59.9247395 C503.424318,61.5251463 504.21027,63.6633884 504.210297,66.3394389 C504.21027,69.5402526 503.005141,72.1900784 500.594964,74.28897 C498.210892,76.36161 494.909935,77.39793 490.692064,77.39793 C486.814755,77.39793 483.579277,76.4796616 480.985685,74.6431516 L480.985685,74.6431516 Z M515.366813,25.9621753 C514.580861,25.9622289 513.886629,25.6736226 513.284065,25.0963832 C512.681527,24.5192511 512.380231,23.7846363 512.380231,22.8925658 C512.380231,22.0268274 512.681527,21.3315632 513.284065,20.8068 C513.912816,20.2558926 514.607075,19.9804121 515.366813,19.9803584 C516.178953,19.9804121 516.886291,20.2428742 517.488856,20.7674495 C518.117607,21.2922126 518.431983,22.0006026 518.43201,22.8925658 C518.431983,23.73216 518.130714,24.4536489 517.528176,25.0570326 C516.925612,25.6605237 516.205166,25.9622289 515.366813,25.9621753 Z M513.59844,76.4140863 L513.59844,36.1155237 L517.213801,36.1155237 L517.213801,76.4140863 L513.59844,76.4140863 Z M561.537123,73.4231779 C561.537069,81.0053747 559.886604,86.5543089 556.585673,90.0699268 C553.284688,93.5855447 548.14985,95.3433537 541.181185,95.3433805 C537.303877,95.3433537 533.30866,94.3201595 529.195563,92.2737711 L529.195563,88.4957716 C533.439648,90.8569911 537.461051,92.0376142 541.259799,92.0376411 C552.367748,92.0376142 557.921736,86.16075 557.921763,74.4070216 L557.921763,69.1729453 L557.764695,69.1729453 C554.594698,74.6562774 549.761156,77.39793 543.264041,77.39793 C538.312591,77.39793 534.265001,75.6007705 531.121245,72.0064247 C528.003675,68.4121058 526.444877,63.4010068 526.444877,56.9731816 C526.444877,50.5453832 528.134662,45.2981811 531.514207,41.2315484 C534.893752,37.1649963 539.347412,35.1317068 544.87524,35.13168 C550.795977,35.1317068 555.092462,37.58478 557.764695,42.4908726 L557.921763,42.4908726 L557.921763,36.1155237 L561.537123,36.1155237 L561.537123,73.4231779 Z M557.921763,51.5816763 C557.921736,48.0136089 556.716634,44.9308737 554.306429,42.3334705 C551.922385,39.7361479 548.804815,38.4374463 544.95372,38.4374195 C540.52622,38.4374463 536.963287,40.1034284 534.264894,43.4353926 C531.566501,46.7673837 530.217277,51.1750453 530.217304,56.6583505 C530.217277,62.1679342 531.448593,66.4575174 533.911225,69.5271268 C536.400043,72.5705116 539.674787,74.0921905 543.735511,74.0921905 C548.058183,74.0921905 551.503208,72.6885632 554.070667,69.8813084 C556.638046,67.0740537 557.921736,63.6371368 557.921763,59.5705311 L557.921763,51.5816763 L557.921763,51.5816763 Z M601.066169,76.4140863 L601.066169,52.2506889 C601.066143,47.4757468 600.201603,43.9863805 598.472577,41.7825095 C596.743471,39.5524942 594.045077,38.4374463 590.37737,38.4374195 C586.919184,38.4374463 583.880229,39.7885974 581.260423,42.4908726 C578.640617,45.1932284 577.330714,49.0630279 577.330714,54.1003247 L577.330714,76.4140863 L573.71538,76.4140863 L573.71538,16.75332 L577.330714,16.75332 L577.330714,43.3566647 L577.487781,43.3566647 C580.657751,37.8733863 585.268612,35.1317068 591.32039,35.13168 C595.669249,35.1317068 598.983287,36.5353342 601.262557,39.3425621 C603.541747,42.1498437 604.681369,46.1770721 604.681396,51.4242474 L604.681396,76.4140863 L601.066062,76.4140863 L601.066169,76.4140863 Z M631.949872,75.8631253 C630.063591,76.7551421 628.295218,77.2011505 626.644753,77.2011505 C620.697775,77.2011505 617.7243,73.6330563 617.7243,66.4968679 L617.7243,39.4212632 L610.493633,39.4212632 L610.493633,36.1155237 L617.7243,36.1155237 L617.7243,25.6473442 C618.300651,25.4374389 618.903215,25.2276142 619.531967,25.0176821 C620.160718,24.8340821 620.763282,24.6373026 621.339633,24.4273705 L621.339633,36.1155237 L631.949872,36.1155237 L631.949872,39.4212632 L621.339633,39.4212632 L621.339633,66.0246079 C621.339633,68.8056379 621.77189,70.8258016 622.636456,72.0851258 C623.527183,73.3182253 625.020474,73.9347884 627.11633,73.9347616 C628.609594,73.9347884 630.220766,73.4494026 631.949872,72.4786847 L631.949872,75.8631253 L631.949872,75.8631253 Z M637.093957,74.6431516 L637.093957,70.2748405 C638.456234,71.4554637 640.106726,72.3868579 642.045381,73.0689963 C643.984035,73.7511347 645.660714,74.0921905 647.075418,74.0921905 C653.389145,74.0921905 656.546008,71.50794 656.546035,66.3394389 C656.546008,64.5554053 655.851749,63.0337263 654.463286,61.7743753 C653.074769,60.5150511 650.821739,59.2163763 647.704169,57.8783242 C643.853047,56.1992432 641.141547,54.4676589 639.569669,52.6835716 C638.023977,50.8733132 637.251132,48.6826216 637.251132,46.1114432 C637.251132,42.8319821 638.495527,40.1821563 640.984373,38.1619389 C643.499378,36.1418021 646.590734,35.1317068 650.258495,35.13168 C653.716627,35.1317068 656.676996,35.8400968 659.139627,37.2567963 L659.139627,41.3496268 C656.153045,39.4081911 653.061662,38.4374463 649.865505,38.4374195 C647.219485,38.4374463 645.084363,39.1327105 643.460084,40.5231853 C641.835806,41.8874889 641.023666,43.6715495 641.023666,45.87534 C641.023666,47.7905779 641.53451,49.3516342 642.556251,50.5584553 C643.577965,51.7391053 645.830995,53.1033821 649.315368,54.6512858 C653.507025,56.5402989 656.388807,58.2981079 657.960712,59.9247395 C659.53259,61.5251463 660.318516,63.6633884 660.318543,66.3394389 C660.318516,69.5402526 659.113414,72.1900784 656.703209,74.28897 C654.319165,76.36161 651.018207,77.39793 646.800336,77.39793 C642.923,77.39793 639.68755,76.4796616 637.093957,74.6431516 Z" id="path3611" fill="#3498DB"></path>
                    <path d="M158.830343,76.2247198 L148.514207,56.430391 L137.962593,76.2247198 L126.616332,76.2247198 L142.703693,50.6779432 L128.226018,25.2884425 L139.729307,25.2884425 L149.122673,44.5780614 L159.301425,25.2884425 L169.823261,25.2884425 L154.952956,50.5206546 L170.05874,76.2247198 L158.830343,76.2247198 Z M195.615791,76.2247198 L195.615791,70.6809924 L195.458639,70.6809924 C192.658046,75.0320997 188.692824,77.207647 183.56272,77.207647 C179.610509,77.207647 176.495862,76.1329934 174.218777,73.9836482 C171.941692,71.8080882 170.803087,68.8986034 170.803087,65.2552189 C170.803087,57.44418 175.187216,53.0013463 183.955351,51.9266421 L195.694242,50.3146364 C195.694242,44.8364586 193.155404,42.0973823 188.077726,42.0973318 C183.235652,42.0973823 178.786084,43.5914216 174.729147,46.5795129 L174.729147,38.5587811 C176.247245,37.641416 178.419604,36.8157521 181.246347,36.0817767 C184.099365,35.3479023 186.690504,34.9809461 189.020015,34.9808956 C199.384699,34.9809461 204.566978,40.2232542 204.567103,50.7078199 L204.567103,76.2247198 L195.615666,76.2247198 L195.615791,76.2247198 Z M187.017697,57.7849213 C184.321831,58.125688 182.424239,58.7940886 181.324923,59.790098 C180.251757,60.7599305 179.715236,62.2671024 179.715236,64.3116012 C179.715236,65.9891312 180.330333,67.3652546 181.560527,68.4399209 C182.790595,69.4883597 184.400282,70.0126044 186.389463,70.0126044 C189.085329,70.0126044 191.310113,69.0820815 193.063815,67.2210734 C194.817391,65.3600527 195.694242,63.0403494 195.694242,60.2619131 L195.694242,56.6447182 L187.017697,57.7849213 L187.017697,57.7849213 Z M262.452278,76.2247198 L262.452278,53.4993257 C262.452152,49.7511201 261.86333,46.9726964 260.685563,45.1640926 C259.53382,43.3293119 257.466064,42.4118963 254.482418,42.4118584 C252.100482,42.4118963 250.098289,43.5127773 248.475588,45.7145142 C246.852764,47.890112 246.041352,50.5243671 246.041352,53.6172921 L246.041352,76.2247198 L236.9723,76.2247198 L236.9723,52.7129966 C236.972176,45.8456006 234.341747,42.4118963 229.080892,42.4118584 C226.620629,42.4118963 224.592161,43.4472531 222.995487,45.5179413 C221.425087,47.5886801 220.639951,50.2884469 220.639951,53.6172921 L220.639951,76.2247198 L211.570775,76.2247198 L211.570775,35.9638481 L220.639951,35.9638481 L220.639951,42.1759761 L220.796978,42.1759761 C223.702297,37.3793063 227.942412,34.9809461 233.517448,34.9808956 C236.187038,34.9809461 238.542699,35.6886563 240.584306,37.1040513 C242.651937,38.4932821 244.104597,40.4198271 244.94216,42.8836736 C248.004506,37.6152013 252.506376,34.9809461 258.447766,34.9808956 C267.189624,34.9809461 271.560617,40.4329471 271.560742,51.336911 L271.560742,76.2247198 L262.452278,76.2247198 L262.452278,76.2247198 Z M301.711123,76.2247198 L301.711123,70.6809924 L301.553974,70.6809924 C298.75338,75.0320997 294.788029,77.207647 289.658049,77.207647 C285.705843,77.207647 282.591196,76.1329934 280.314111,73.9836482 C278.037026,71.8080882 276.898422,68.8986034 276.898422,65.2552189 C276.898422,57.44418 281.282551,53.0013463 290.050689,51.9266421 L301.789578,50.3146364 C301.789578,44.8364586 299.25074,42.0973823 294.173063,42.0973318 C289.330864,42.0973823 284.881419,43.5914216 280.824481,46.5795129 L280.824481,38.5587811 C282.342579,37.641416 284.514938,36.8157521 287.341676,36.0817767 C290.194574,35.3479023 292.785842,34.9809461 295.115227,34.9808956 C305.480033,34.9809461 310.662317,40.2232542 310.662443,50.7078199 L310.662443,76.2247198 L301.710997,76.2247198 L301.711123,76.2247198 Z M293.113027,57.7849213 C290.417039,58.125688 288.519571,58.7940886 287.420257,59.790098 C286.347091,60.7599305 285.810571,62.2671024 285.810571,64.3116012 C285.810571,65.9891312 286.425667,67.3652546 287.655862,68.4399209 C288.885934,69.4883597 290.49562,70.0126044 292.484795,70.0126044 C295.180669,70.0126044 297.405449,69.0820815 299.159146,67.2210734 C300.912729,65.3600527 301.789578,63.0403494 301.789578,60.2619131 L301.789578,56.6447182 L293.113027,57.7849213 L293.113027,57.7849213 Z M341.041424,44.8102186 C339.549596,43.8928409 337.795899,43.4341583 335.78056,43.4341331 C333.163153,43.4341583 331.030081,44.5612541 329.381104,46.8154078 C327.758404,49.0696247 326.946985,52.0053243 326.946985,55.6224814 L326.946985,76.2247198 L317.877819,76.2247198 L317.877819,35.9638481 L326.946985,35.9638481 L326.946985,43.7879692 L327.104147,43.7879692 C329.040893,38.1001238 332.469731,35.2561759 337.390372,35.2561254 C338.98692,35.2561759 340.203979,35.4396161 341.04155,35.8065848 L341.04155,44.8102186 L341.041424,44.8102186 Z M350.069811,26.9602017 C348.525554,26.960227 347.216914,26.4622223 346.143739,25.4661245 C345.070703,24.4439509 344.534179,23.1988761 344.534179,21.7309884 C344.534179,20.2107722 345.070703,18.9395079 346.143739,17.9172332 C347.216914,16.8950091 348.525554,16.383897 350.069811,16.3838339 C351.640207,16.383897 352.961987,16.9081417 354.035149,17.9565427 C355.108198,18.97883 355.644836,20.236987 355.644836,21.7309884 C355.644836,23.1988761 355.108198,24.4439509 354.035149,25.4661245 C352.961987,26.4622223 351.640207,26.960227 350.069811,26.9602017 Z M345.437065,76.2247198 L345.437065,35.9638481 L354.506231,35.9638481 L354.506231,76.2247198 L345.437065,76.2247198 Z M388.782371,76.2247198 L388.782371,53.6172921 C388.782371,46.1470451 386.099523,42.4118963 380.734064,42.4118584 C378.038077,42.4118963 375.77412,43.4472531 373.941968,45.5179413 C372.135968,47.5624654 371.232968,50.1705184 371.232968,53.3420624 L371.232968,76.2247198 L362.163789,76.2247198 L362.163789,35.9638481 L371.232968,35.9638481 L371.232968,42.4118584 L371.390117,42.4118584 C374.321596,37.4579253 378.666308,34.9809461 384.42452,34.9808956 C393.375953,34.9809461 397.85155,40.4853387 397.851676,51.4941744 L397.851676,76.2247198 L388.782497,76.2247198 L388.782371,76.2247198 Z" id="path19352" fill="#34495E"></path>
                    <path d="M50.9261487,10.3853817 C73.1625164,10.3853817 91.1524033,28.4014279 91.1524033,50.6698821 C91.1524033,72.9385854 73.1625164,90.9546317 50.9261487,90.9546317 C28.689806,90.9546317 10.6998942,72.9385854 10.6998942,50.6698821 C10.6998942,28.4014279 28.689806,10.3853817 50.9261487,10.3853817 Z M50.9262483,27.7311492 L42.9953074,53.5829783 L37.5525049,38.9439907 C37.1780153,37.9118228 36.2135159,37.2121688 35.1174587,37.177593 C34.0214016,37.1430172 33.0148435,37.7804929 32.5762282,38.787011 L28.5330035,47.9755608 L18.7359589,47.9755608 C17.7776073,47.9755604 16.8920536,48.4875752 16.4128777,49.3187343 C15.9337017,50.1498933 15.9337017,51.1739236 16.4128777,52.0050827 C16.8920536,52.8362417 17.7776073,53.3482566 18.7359589,53.3482562 L30.3213529,53.3482562 C31.3579083,53.3395339 32.2965366,52.73309 32.7317369,51.7909171 L34.8311036,47.0411574 L40.7404321,62.8480247 C41.1508833,63.909875 42.1855903,64.596897 43.3220468,64.5621586 C44.4585034,64.5274202 45.4494437,63.7784796 45.794463,62.6935366 L53.2588779,38.3213043 L62.433888,73.8286358 C62.7403879,74.9730398 63.7598259,75.7808692 64.9424301,75.8164705 C66.1250344,75.8520718 67.1910853,75.1070243 67.5656732,73.9831239 L74.2525449,53.3485053 L83.1165376,53.3485053 C84.59802,53.3485046 85.7989983,52.145786 85.7989983,50.6621577 C85.7989983,49.1785293 84.59802,47.9758107 83.1165376,47.97581 L72.3864412,47.97581 C71.2153337,47.970549 70.1763784,48.7272474 69.8205486,49.8446169 L65.3107979,63.549201 L56.1357879,27.808144 C55.8372808,26.6290687 54.7844278,25.7983465 53.5698952,25.7836032 C52.3486685,25.7542234 51.2615662,26.5547724 50.9262483,27.7311492 Z M101.852453,50.6840879 C101.852453,78.8506837 79.0519954,101.684081 50.9262299,101.684081 C22.8004643,101.684081 7.19814852e-06,78.8506837 7.19814852e-06,50.6840879 C7.19814852e-06,22.5177854 22.8004643,-0.315905207 50.9262299,-0.315905207 C79.0519954,-0.315905207 101.852453,22.5177854 101.852453,50.6840879 Z M50.9261487,5.0605278 C25.7926924,5.0605278 5.38264309,25.5000429 5.38264309,50.6698821 C5.38264309,75.8399704 25.7926924,96.2794855 50.9261487,96.2792363 C76.0596051,96.2792363 96.4696793,75.8399704 96.4696793,50.6698821 C96.4696793,25.5000429 76.0596051,5.06027863 50.9261487,5.0605278 Z" id="path19468" fill="#34495E"></path>
                </g>
            </g>
        </g>
    </g>
</svg>